:FULLY-SPECIFIED
:DEGREES
2996
root 5.44101 16.3715 -1.10053 85.638 -93.1939 -69.9293
lowerback -6.07312 -1.34713 -2.46368
upperback -4.64484 -1.82216 -0.320604
thorax -1.31964 -0.917067 0.963821
lowerneck -14.729 -0.408868 1.93402
upperneck 19.697 -1.41539 0.868311
head 8.56776 -0.505277 -0.204802
rclavicle 1.90833e-014 1.49089e-015
rhumerus -38.3586 -7.59658 -79.7129
rradius 32.2198
rwrist 17.8375
rhand -24.5958 -4.75973
rfingers 7.12502
rthumb 1.90192 -34.731
lclavicle 1.90833e-014 1.49089e-015
lhumerus -31.3507 -9.35898 86.1051
lradius 35.9209
lwrist -7.13196
lhand -35.6462 -3.21122
lfingers 7.12502
lthumb -8.76838 26.5866
rfemur -46.2813 1.87721 17.6359
rtibia 58.0869
rfoot -12.9293 -11.1525
rtoes -13.791
lfemur -23.0301 -15.6653 -28.3122
ltibia 24.0917
lfoot -14.3352 25.7161
ltoes -5.15419
2997
root 5.44845 16.3739 -1.09484 86.0042 -93.1059 -70.1763
lowerback -6.11438 -1.43272 -2.4611
upperback -4.68435 -1.93608 -0.171241
thorax -1.32879 -0.972229 1.10958
lowerneck -14.7066 -0.341596 1.96329
upperneck 19.64 -1.32095 0.843902
head 8.54451 -0.461396 -0.206589
rclavicle -5.56597e-015 -1.74931e-014
rhumerus -38.604 -7.84811 -79.3398
rradius 32.0264
rwrist 18.2849
rhand -24.6455 -4.67079
rfingers 7.12502
rthumb 1.85398 -34.6425
lclavicle -5.56597e-015 -1.74931e-014
lhumerus -31.0306 -9.72104 86.247
lradius 36.2646
lwrist -6.99172
lhand -35.6344 -3.14448
lfingers 7.12502
lthumb -8.75699 26.6539
rfemur -46.5554 2.29266 17.629
rtibia 55.4082
rfoot -12.9182 -11.7093
rtoes -13.4977
lfemur -22.4376 -16.2048 -28.2654
ltibia 23.7645
lfoot -14.6484 26.3265
ltoes -5.26158
2998
root 5.45574 16.3823 -1.09018 87.0053 -92.9989 -71.0572
lowerback -6.12931 -1.5125 -2.43519
upperback -4.72079 -2.04391 -0.0375998
thorax -1.3503 -1.02488 1.22711
lowerneck -14.6973 -0.288439 2.00316
upperneck 19.5432 -1.25234 0.844677
head 8.51028 -0.426112 -0.204537
rclavicle 1.19271e-014 1.21259e-014
rhumerus -38.7719 -8.03187 -79.0532
rradius 31.8788
rwrist 18.3073
rhand -24.5103 -4.91174
rfingers 7.12502
rthumb 1.98452 -34.8823
lclavicle 1.19271e-014 1.21259e-014
lhumerus -30.7134 -10.0477 86.3489
lradius 36.6164
lwrist -6.88546
lhand -35.5457 -3.19602
lfingers 7.12502
lthumb -8.67142 26.6059
rfemur -46.6692 2.74662 17.6021
rtibia 52.4687
rfoot -12.7917 -12.2472
rtoes -12.4965
lfemur -21.8258 -16.7067 -28.215
ltibia 23.385
lfoot -14.7665 26.9461
ltoes -5.53871
2999
root 5.46219 16.3945 -1.08692 87.9622 -92.9552 -71.8929
lowerback -6.14092 -1.58964 -2.48039
upperback -4.76671 -2.14598 0.0819897
thorax -1.38162 -1.07318 1.37056
lowerneck -14.647 -0.247625 2.01433
upperneck 19.4151 -1.20144 0.887644
head 8.45848 -0.397484 -0.185419
rclavicle -1.27222e-014 -1.59028e-014
rhumerus -39.0506 -8.30241 -78.6578
rradius 31.6711
rwrist 18.7342
rhand -24.6991 -4.47745
rfingers 7.12502
rthumb 1.80215 -34.4496
lclavicle -1.27222e-014 -1.59028e-014
lhumerus -30.4436 -10.4452 86.476
lradius 36.9684
lwrist -6.86211
lhand -35.4739 -3.14974
lfingers 7.12502
lthumb -8.60209 26.655
rfemur -46.7098 3.18303 17.4561
rtibia 49.2907
rfoot -12.3916 -12.5998
rtoes -11.5506
lfemur -21.1216 -17.1761 -28.2375
ltibia 22.8519
lfoot -14.8449 27.4028
ltoes -6.01832
3000
root 5.46727 16.3989 -1.08356 88.6511 -92.8846 -72.4362
lowerback -6.21308 -1.65519 -2.47208
upperback -4.78711 -2.23226 0.201552
thorax -1.35485 -1.11558 1.48243
lowerneck -14.6834 -0.207426 2.03106
upperneck 19.3194 -1.14794 0.899149
head 8.43308 -0.369356 -0.177858
rclavicle 3.57812e-014 1.80894e-014
rhumerus -39.2307 -8.52729 -78.3564
rradius 31.5888
rwrist 18.6993
rhand -24.6847 -4.55139
rfingers 7.12502
rthumb 1.81612 -34.5234
lclavicle 3.57812e-014 1.80894e-014
lhumerus -30.1829 -10.9837 86.65
lradius 37.354
lwrist -6.41792
lhand -35.5889 -3.1663
lfingers 7.12502
lthumb -8.71314 26.6339
rfemur -46.5733 3.599 17.3596
rtibia 45.864
rfoot -11.7015 -12.8897
rtoes -11.371
lfemur -20.3583 -17.5299 -28.2357
ltibia 22.1927
lfoot -15.0744 27.741
ltoes -6.02354
3001
root 5.47227 16.409 -1.08091 90.4266 -92.8202 -73.9887
lowerback -6.37127 -1.73475 -2.45639
upperback -4.82343 -2.33708 0.309749
thorax -1.29656 -1.1686 1.5748
lowerneck -14.7738 -0.176384 2.04351
upperneck 19.2766 -1.10767 0.903213
head 8.43523 -0.347939 -0.173925
rclavicle -2.78299e-014 -8.34896e-015
rhumerus -39.3931 -8.74163 -78.0669
rradius 31.4733
rwrist 18.866
rhand -24.6743 -4.68621
rfingers 7.12502
rthumb 1.8261 -34.6581
lclavicle -2.78299e-014 -8.34896e-015
lhumerus -29.9487 -11.4642 86.7663
lradius 37.8113
lwrist -6.18646
lhand -35.4449 -3.15104
lfingers 7.12502
lthumb -8.57414 26.6549
rfemur -46.4144 4.05608 17.1713
rtibia 42.2329
rfoot -10.9539 -13.0646
rtoes -11.6195
lfemur -19.6707 -18.0035 -28.1945
ltibia 21.4502
lfoot -15.0388 28.1041
ltoes -6.05617
3002
root 5.4775 16.4256 -1.08028 92.6691 -92.7676 -75.9742
lowerback -6.53314 -1.8252 -2.47393
upperback -4.89232 -2.45682 0.427589
thorax -1.26745 -1.2282 1.69504
lowerneck -14.7302 -0.133147 2.02077
upperneck 19.1182 -1.04714 0.962303
head 8.37477 -0.315456 -0.142731
rclavicle 1.35174e-014 -4.96962e-015
rhumerus -39.5338 -9.0066 -77.7659
rradius 31.3158
rwrist 18.9674
rhand -24.7203 -4.76797
rfingers 7.12502
rthumb 1.78167 -34.7403
lclavicle 1.35174e-014 -4.96962e-015
lhumerus -29.7798 -11.8577 86.8779
lradius 38.2428
lwrist -6.12283
lhand -35.3459 -3.3122
lfingers 7.12502
lthumb -8.4786 26.4976
rfemur -46.2317 4.61719 16.8723
rtibia 38.4052
rfoot -9.91482 -13.3574
rtoes -11.469
lfemur -19.0434 -18.3916 -28.1643
ltibia 20.725
lfoot -14.8878 28.477
ltoes -6.44533
3003
root 5.48181 16.4374 -1.08016 95.1247 -92.7211 -78.1721
lowerback -6.70097 -1.89925 -2.4569
upperback -4.96116 -2.55661 0.515907
thorax -1.23816 -1.27917 1.76614
lowerneck -14.73 -0.100955 2.06451
upperneck 19.0293 -1.00826 0.959518
head 8.34488 -0.294242 -0.146152
rclavicle 3.65764e-014 6.75868e-015
rhumerus -39.7397 -9.21165 -77.5251
rradius 31.2182
rwrist 18.9827
rhand -24.7276 -4.87335
rfingers 7.12502
rthumb 1.77469 -34.8457
lclavicle 3.65764e-014 6.75868e-015
lhumerus -29.6489 -12.4059 86.997
lradius 38.7513
lwrist -5.63939
lhand -35.2744 -3.26414
lfingers 7.12502
lthumb -8.40957 26.5484
rfemur -45.9041 5.49784 16.3429
rtibia 34.4657
rfoot -9.21299 -13.9659
rtoes -10.773
lfemur -18.3221 -18.6151 -28.1585
ltibia 19.8463
lfoot -14.7573 28.5729
ltoes -6.97107
3004
root 5.48463 16.4453 -1.08185 96.8161 -92.7035 -79.6581
lowerback -6.82814 -1.94796 -2.45441
upperback -5.00545 -2.62152 0.58467
thorax -1.20773 -1.31218 1.82795
lowerneck -14.7322 -0.0888275 2.09125
upperneck 18.9046 -0.991387 0.957938
head 8.30329 -0.284489 -0.148744
rclavicle 2.70347e-014 1.43125e-014
rhumerus -39.917 -9.47609 -77.254
rradius 31.1048
rwrist 19.1238
rhand -24.6982 -4.90857
rfingers 7.12502
rthumb 1.80305 -34.8807
lclavicle 2.70347e-014 1.43125e-014
lhumerus -29.5259 -12.903 87.0993
lradius 39.1976
lwrist -5.44775
lhand -35.3145 -3.36478
lfingers 7.12502
lthumb -8.44826 26.4462
rfemur -45.3877 6.55122 15.6639
rtibia 30.4677
rfoot -8.41295 -14.8229
rtoes -10.5673
lfemur -17.4861 -18.9127 -28.1801
ltibia 18.9045
lfoot -14.7844 28.7268
ltoes -7.02946
3005
root 5.48719 16.4615 -1.08374 98.8546 -92.6648 -81.4714
lowerback -6.98506 -2.01403 -2.39906
upperback -5.03228 -2.71094 0.65636
thorax -1.14343 -1.35917 1.85989
lowerneck -14.8247 -0.0610547 2.09395
upperneck 18.8018 -0.95072 0.963693
head 8.28561 -0.263381 -0.142373
rclavicle 7.15625e-015 -9.93923e-015
rhumerus -40.0093 -9.67923 -77.0705
rradius 30.9768
rwrist 19.0772
rhand -24.7341 -5.04552
rfingers 7.12502
rthumb 1.7684 -35.0179
lclavicle 7.15625e-015 -9.93923e-015
lhumerus -29.3812 -13.2136 87.1306
lradius 39.6532
lwrist -5.49391
lhand -35.273 -3.30362
lfingers 7.12502
lthumb -8.40824 26.509
rfemur -44.924 7.88204 14.7406
rtibia 26.5451
rfoot -7.63165 -16.2793
rtoes -10.5192
lfemur -16.6859 -19.0968 -28.1716
ltibia 17.9321
lfoot -14.5536 28.7979
ltoes -7.30735
